<svg xmlns="http://www.w3.org/2000/svg" viewBox="0 0 64 64">
  <defs>
    <linearGradient id="g" x1="0" y1="0" x2="1" y2="1">
      <stop offset="0" stop-color="#1fb6ff"/><stop offset="1" stop-color="#34d399"/>
    </linearGradient>
  </defs>
  <circle cx="32" cy="32" r="30" fill="url(#g)"/>
  <g fill="#fff" opacity="0.9">
    <path d="M32 16a16 16 0 1 0 0 32 16 16 0 0 0 0-32zm0 4a12 12 0 1 1 0 24 12 12 0 0 1 0-24z"/>
    <circle cx="32" cy="32" r="2"/>
  </g>
  <path d="M22 44c3-5 9-8 16-8" stroke="#fff" stroke-width="2" fill="none" opacity="0.9"/>
  <path d="M44 24l-3 6-6-3" fill="#fff" opacity="0.9"/>
  <path d="M20 40c-3-3-5-7-5-12" stroke="#0ea5e9" stroke-width="3" opacity="0.6"/>
  <path d="M48 35c0 7-3 12-8 15" stroke="#10b981" stroke-width="3" opacity="0.6"/>
  <path d="M16 48c6-2 9-1 12 2" stroke="#fff" stroke-width="2" opacity="0.8"/>
  <path d="M14 34c4-6 10-10 18-12" stroke="#fff" stroke-width="2" opacity="0.8"/>
  <path d="M46 42l4 2-4 2" fill="#fff" opacity="0.9"/>
  <path d="M18 26l-2-4 4 2" fill="#fff" opacity="0.9"/>
</svg>
